# Blender 4.2.1 LTS
# www.blender.org
mtllib chili_stem.mtl
o chili.001
v 0.008754 0.014451 -0.017668
v 0.006442 0.014367 -0.039607
v -0.007780 0.021229 -0.033046
v -0.009114 0.018820 -0.035233
v -0.000002 0.025419 -0.029048
v -0.003223 0.024522 -0.029954
v -0.007780 0.016651 -0.037420
v -0.006445 0.014242 -0.039607
v -0.006445 0.023462 -0.030860
v 0.003220 0.024569 -0.029954
v -0.003237 0.013451 -0.040562
v 0.007777 0.016795 -0.037420
v 0.009111 0.018965 -0.035233
v -0.000002 0.012411 -0.041419
v 0.007777 0.021374 -0.033046
v 0.006442 0.023545 -0.030860
v 0.003017 0.018675 -0.039368
v 0.003642 0.019813 -0.038344
v 0.003642 0.021957 -0.036296
v 0.003017 0.022973 -0.035272
v 0.004267 0.020829 -0.037320
v -0.003643 0.019745 -0.038344
v -0.003018 0.018617 -0.039368
v 0.001508 0.023453 -0.034848
v -0.001509 0.018249 -0.039792
v -0.000001 0.017759 -0.040216
v -0.000001 0.023851 -0.034424
v -0.001509 0.023431 -0.034848
v 0.001508 0.018283 -0.039792
v -0.003018 0.022934 -0.035272
v -0.003643 0.021889 -0.036296
v -0.004268 0.020761 -0.037320
v -0.008439 0.021581 -0.032033
v -0.010478 0.018810 -0.034214
v -0.000002 0.019587 -0.038734
v 0.000675 0.019822 -0.038544
v 0.002230 0.017201 -0.041332
v -0.000002 0.016427 -0.041959
v -0.007413 0.024149 -0.029158
v 0.001631 0.020508 -0.037895
v 0.001911 0.020963 -0.037436
v 0.006309 0.020966 -0.037676
v 0.005385 0.019463 -0.039190
v -0.001354 0.019972 -0.038354
v -0.000678 0.019807 -0.038544
v -0.002233 0.017150 -0.041332
v -0.004464 0.017695 -0.040705
v 0.000022 0.026408 -0.027059
v -0.003484 0.025161 -0.028670
v 0.001351 0.019998 -0.038354
v 0.004461 0.017781 -0.040705
v -0.001914 0.020932 -0.037436
v -0.001634 0.020477 -0.037895
v -0.005388 0.019363 -0.039190
v -0.006312 0.020865 -0.037676
v 0.007456 0.024247 -0.029156
v 0.003523 0.025213 -0.028670
v 0.010520 0.018981 -0.034212
v 0.008478 0.021738 -0.032033
v 0.007437 0.013712 -0.039265
v 0.008478 0.016759 -0.036789
v 0.001631 0.021468 -0.036977
v 0.001351 0.021924 -0.036518
v 0.004461 0.024137 -0.034647
v 0.005385 0.022633 -0.036162
v 0.000018 0.011473 -0.041358
v 0.003523 0.013064 -0.041501
v 0.000675 0.022139 -0.036328
v -0.000002 0.022317 -0.036138
v -0.000002 0.025435 -0.033393
v 0.002230 0.024846 -0.034020
v -0.000422 0.025048 -0.042129
v -0.000002 0.024912 -0.042248
v -0.000678 0.022129 -0.036328
v -0.000002 0.026611 -0.040632
v -0.000422 0.026493 -0.040751
v 0.000419 0.025058 -0.042129
v 0.000840 0.025167 -0.042011
v -0.001634 0.021438 -0.036977
v -0.001354 0.021907 -0.036518
v -0.000843 0.026355 -0.040869
v -0.001017 0.026063 -0.041154
v -0.001192 0.025749 -0.041440
v -0.001017 0.025465 -0.041726
v 0.001014 0.025484 -0.041726
v 0.001189 0.025768 -0.041440
v -0.000843 0.025151 -0.042011
v 0.000419 0.026500 -0.040751
v 0.001014 0.026082 -0.041154
v 0.000840 0.026366 -0.040869
v 0.000840 0.028771 -0.045014
v 0.001014 0.029088 -0.044729
v 0.001014 0.029686 -0.044158
v 0.000840 0.029970 -0.043872
v 0.001189 0.029372 -0.044443
v -0.001017 0.029069 -0.044729
v -0.000843 0.028755 -0.045014
v 0.000419 0.030103 -0.043754
v -0.000422 0.028652 -0.045133
v -0.000002 0.028516 -0.045251
v -0.000002 0.030215 -0.043636
v -0.000422 0.030097 -0.043754
v 0.000419 0.028662 -0.045133
v -0.000843 0.029959 -0.043872
v -0.001017 0.029667 -0.044158
v -0.001192 0.029353 -0.044443
v -0.001017 0.033872 -0.046360
v -0.001192 0.033557 -0.046646
v -0.000843 0.032959 -0.047217
v -0.000422 0.032857 -0.047335
v -0.000422 0.034302 -0.045956
v -0.000843 0.034163 -0.046074
v -0.000002 0.032720 -0.047453
v 0.000419 0.032866 -0.047335
v 0.000419 0.034308 -0.045956
v -0.000002 0.034419 -0.045838
v 0.000840 0.032976 -0.047217
v 0.001014 0.033293 -0.046931
v 0.001014 0.033891 -0.046360
v 0.000840 0.034174 -0.046074
v 0.001189 0.033576 -0.046646
v -0.001017 0.033274 -0.046931
v -0.000422 0.038987 -0.048638
v -0.000002 0.039089 -0.048786
v -0.000002 0.037671 -0.046919
v -0.000422 0.037776 -0.047049
v 0.000419 0.038988 -0.048628
v 0.000840 0.038882 -0.048506
v -0.000843 0.037878 -0.047200
v -0.001017 0.038130 -0.047521
v -0.001192 0.038379 -0.047865
v -0.001017 0.038631 -0.048178
v 0.001014 0.038633 -0.048159
v 0.001189 0.038381 -0.047846
v -0.000843 0.038880 -0.048522
v 0.000419 0.037776 -0.047043
v 0.001014 0.038132 -0.047502
v 0.000840 0.037879 -0.047189
v -0.005388 0.022534 -0.036162
v -0.003484 0.013044 -0.040951
v -0.007397 0.013566 -0.039264
v -0.002233 0.024813 -0.034020
v -0.004464 0.024079 -0.034647
v -0.008439 0.016602 -0.036789
v 0.000299 0.037957 -0.047254
v 0.000178 0.038134 -0.047492
v 0.000004 0.038387 -0.047808
v -0.000170 0.038636 -0.048153
v -0.000296 0.038813 -0.048378
vn 0.4777 -0.7292 0.4900
vn 0.4722 -0.7370 0.4837
vn 0.4772 -0.7295 0.4901
vn -0.0511 0.7133 -0.6990
vn 0.4726 -0.7372 0.4830
vn -0.0385 0.7210 -0.6919
vn -0.0148 0.7280 -0.6855
vn 0.1793 -0.9302 0.3203
vn 0.0026 0.7293 -0.6842
vn 0.0270 0.7179 -0.6956
vn -0.1909 -0.9250 0.3285
vn 0.0346 0.7138 -0.6995
vn -0.4670 -0.7309 0.4977
vn 0.0470 0.6858 -0.7263
vn -0.5030 -0.4236 0.7534
vn -0.5043 -0.4270 0.7506
vn -0.5034 -0.4270 0.7512
vn -0.0578 0.6906 -0.7209
vn 0.0438 -0.2330 0.9715
vn -0.0365 0.6604 -0.7500
vn -0.3821 -0.5090 -0.7713
vn -0.3679 0.6724 0.6423
vn 0.3536 -0.5168 -0.7797
vn -0.9178 0.3265 0.2260
vn -0.9087 -0.1778 -0.3777
vn -0.9084 -0.1781 -0.3781
vn -0.9133 -0.1710 -0.3696
vn 0.9087 -0.1781 -0.3776
vn 0.9088 -0.1778 -0.3775
vn 0.9137 -0.1705 -0.3688
vn -0.9237 0.3172 0.2150
vn -0.3462 -0.5181 -0.7821
vn -0.3966 0.6648 0.6331
vn 0.3916 -0.5069 -0.7679
vn 0.3591 0.6748 0.6447
vn 0.9139 -0.1703 -0.3684
vn 0.9152 0.3307 0.2302
vn 0.9237 0.3175 0.2143
vn -0.9134 -0.1707 -0.3694
vn 0.3904 0.6668 0.6348
vn 0.9245 -0.2441 -0.2929
vn 0.9171 0.2552 0.3063
vn 0.9239 0.2450 0.2940
vn -0.9238 -0.2450 -0.2941
vn 0.3868 0.5903 0.7084
vn -0.3900 -0.5895 -0.7074
vn -0.3668 0.5956 0.7147
vn 0.3568 -0.5981 -0.7176
vn -0.9191 0.2522 0.3028
vn -0.9190 0.2524 0.3029
vn -0.9237 0.2451 0.2943
vn -0.9170 -0.2553 -0.3064
vn 0.9170 -0.2554 -0.3064
vn -0.9239 0.2449 0.2939
vn -0.3488 -0.6000 -0.7200
vn -0.3924 0.5888 0.7066
vn 0.4010 -0.5864 -0.7038
vn 0.3595 0.5974 0.7169
vn -0.9164 0.1857 0.3546
vn -0.9127 0.1895 0.3621
vn -0.9160 0.1860 0.3554
vn -0.3406 -0.4363 -0.8328
vn -0.3728 0.4306 0.8220
vn 0.3794 -0.4293 -0.8196
vn 0.3483 0.4350 0.8304
vn 0.9168 -0.1853 -0.3537
vn 0.9109 0.1914 0.3656
vn 0.9113 0.1911 0.3648
vn 0.9159 0.1863 0.3556
vn 0.9163 0.1858 0.3548
vn -0.9164 -0.1858 -0.3546
vn -0.9112 -0.1912 -0.3648
vn -0.9159 -0.1864 -0.3555
vn 0.3687 0.4313 0.8234
vn -0.3711 -0.4308 -0.8226
vn -0.3537 0.4341 0.8285
vn 0.3466 -0.4352 -0.8310
vn -0.9123 0.1900 0.3628
vn -0.9107 -0.1916 -0.3659
vn 0.9108 -0.1916 -0.3658
vn -0.3034 -0.1966 -0.9323
vn -0.2739 0.2958 0.9151
vn 0.2693 -0.2021 -0.9416
vn -0.8627 0.1394 0.4862
vn -0.8606 -0.1199 -0.4950
vn 0.8608 -0.1185 -0.4950
vn -0.8737 0.1234 0.4706
vn -0.2610 -0.2042 -0.9435
vn -0.3032 0.2810 0.9105
vn 0.3152 -0.1952 -0.9287
vn 0.2658 0.2960 0.9175
vn 0.8756 -0.1055 -0.4713
vn 0.8590 0.1399 0.4925
vn 0.8590 0.1399 0.4924
vn 0.8737 0.1220 0.4710
vn -0.8746 -0.1070 -0.4728
vn -0.8747 -0.1070 -0.4728
vn 0.2970 0.2801 0.9129
vn -0.6364 0.6980 -0.3284
vn -0.3562 -0.0257 -0.9340
vn -0.2479 0.9596 -0.1331
vn -0.2481 0.9595 -0.1336
vn -0.2582 0.9565 -0.1359
vn 0.0976 -0.0332 -0.9947
vn 0.2449 0.9597 -0.1377
vn 0.2410 0.9608 -0.1369
vn 0.2448 0.9598 -0.1375
vn 0.7069 0.2607 -0.6575
vn 0.6369 0.6885 -0.3469
vn 0.6273 0.7020 -0.3372
vn -0.7132 0.2555 -0.6527
vn 0.2368 0.9620 -0.1360
vn -0.2069 -0.0776 -0.9753
vn -0.2588 0.9564 -0.1353
vn 0.4093 0.0721 -0.9095
vn -0.6513 0.6762 -0.3442
vn -0.6956 0.2037 -0.6889
vn 0.6906 0.2101 -0.6920
vn -0.0594 0.6858 -0.7253
vn 0.2017 -0.9237 0.3258
vn -0.0415 0.6591 -0.7509
vn -0.1656 -0.9321 0.3220
vn -0.0065 0.6509 -0.7591
vn -0.4557 -0.7476 0.4832
vn 0.0268 0.6606 -0.7503
vn 0.5127 -0.4227 0.7473
vn 0.5106 -0.4175 0.7516
vn 0.5120 -0.4226 0.7478
vn 0.0424 0.6859 -0.7264
vn 0.0761 -0.2082 0.9751
vn 0.0306 0.6625 -0.7484
vn 0.5112 -0.4170 0.7515
vn -0.3543 -0.3600 0.8631
vn -0.0011 0.6517 -0.7585
vn 0.3071 -0.2837 0.9084
vn -0.5037 -0.4229 0.7533
vn -0.0053 0.7633 0.6461
vn -0.0053 0.7632 0.6461
vn 0.0329 0.7694 0.6379
vn -0.0256 0.7937 0.6078
vn 0.0097 0.8058 0.5921
vn -0.0182 0.7795 0.6262
vn 0.0238 0.7860 0.6178
vn -0.0338 0.8018 0.5966
vn 0.0050 0.8129 0.5824
vn -0.0230 0.7827 0.6220
vn 0.0207 0.7911 0.6114
vn -0.0492 0.8199 0.5704
vn -0.0074 0.8306 0.5569
vn -0.0073 0.8306 0.5569
vn 0.4816 0.4253 -0.7663
vn 0.4688 0.7531 -0.4615
vn 0.4893 0.7190 -0.4935
vn -0.4872 0.4234 -0.7638
vn 0.2156 0.9330 -0.2882
vn -0.1882 0.2183 -0.9576
vn -0.1853 0.9434 -0.2752
vn -0.4828 0.7428 -0.4638
vn -0.4985 0.4440 -0.7446
vn 0.4935 0.4479 -0.7455
vn -0.4973 0.7178 -0.4873
vn -0.2210 0.2285 -0.9481
vn -0.2258 0.9310 -0.2867
vn 0.1719 0.9457 -0.2758
s 1
usemtl Green
f 32//1 31//2 33//3 34//1
f 35//4 36//4 37//4 38//4
f 31//2 30//5 39//5 33//3
f 40//6 41//6 42//6 43//6
f 44//7 45//7 46//7 47//7
f 28//8 27//8 48//8 49//8
f 36//9 50//9 51//9 37//9
f 52//10 53//10 54//10 55//10
f 24//11 20//11 56//11 57//11
f 45//12 35//12 38//12 46//12
f 19//13 21//13 58//13 59//13
f 53//14 44//14 47//14 54//14
f 18//15 17//16 60//16 61//17
f 62//18 63//18 64//18 65//18
f 29//19 26//19 66//19 67//19
f 68//20 69//20 70//20 71//20
f 35//21 45//21 72//21 73//21
f 74//22 69//22 75//22 76//22
f 50//23 36//23 77//23 78//23
f 79//24 80//24 81//24 82//24
f 53//25 52//26 83//26 84//27
f 41//28 40//29 85//30 86//28
f 52//31 79//31 82//31 83//31
f 45//32 44//32 87//32 72//32
f 80//33 74//33 76//33 81//33
f 36//34 35//34 73//34 77//34
f 69//35 68//35 88//35 75//35
f 40//29 50//36 78//36 85//30
f 63//37 62//37 89//37 90//37
f 62//38 41//38 86//38 89//38
f 44//39 53//25 84//27 87//39
f 68//40 63//40 90//40 88//40
f 85//41 78//41 91//41 92//41
f 90//42 89//42 93//42 94//42
f 89//43 86//43 95//43 93//43
f 87//44 84//44 96//44 97//44
f 88//45 90//45 94//45 98//45
f 73//46 72//46 99//46 100//46
f 76//47 75//47 101//47 102//47
f 78//48 77//48 103//48 91//48
f 82//49 81//50 104//50 105//51
f 84//52 83//52 106//52 96//52
f 86//53 85//53 92//53 95//53
f 83//54 82//49 105//51 106//54
f 72//55 87//55 97//55 99//55
f 81//56 76//56 102//56 104//56
f 77//57 73//57 100//57 103//57
f 75//58 88//58 98//58 101//58
f 106//59 105//60 107//61 108//59
f 99//62 97//62 109//62 110//62
f 104//63 102//63 111//63 112//63
f 103//64 100//64 113//64 114//64
f 101//65 98//65 115//65 116//65
f 92//66 91//66 117//66 118//66
f 94//67 93//68 119//69 120//67
f 93//68 95//70 121//70 119//69
f 97//71 96//72 122//73 109//71
f 98//74 94//74 120//74 115//74
f 100//75 99//75 110//75 113//75
f 102//76 101//76 116//76 111//76
f 91//77 103//77 114//77 117//77
f 105//60 104//78 112//78 107//61
f 96//72 106//79 108//79 122//73
f 95//80 92//80 118//80 121//80
f 113//81 110//81 123//81 124//81
f 111//82 116//82 125//82 126//82
f 117//83 114//83 127//83 128//83
f 107//84 112//84 129//84 130//84
f 122//85 108//85 131//85 132//85
f 121//86 118//86 133//86 134//86
f 108//87 107//87 130//87 131//87
f 110//88 109//88 135//88 123//88
f 112//89 111//89 126//89 129//89
f 114//90 113//90 124//90 127//90
f 116//91 115//91 136//91 125//91
f 118//92 117//92 128//92 133//92
f 120//93 119//94 137//93 138//94
f 119//95 121//95 134//95 137//95
f 109//96 122//97 132//96 135//97
f 115//98 120//98 138//98 136//98
f 34//99 33//99 139//99 55//99
f 140//100 141//100 47//100 46//100
f 39//101 49//102 142//103 143//101
f 67//104 66//104 38//104 37//104
f 48//105 57//106 71//107 70//105
f 61//108 60//108 51//108 43//108
f 56//109 59//109 65//109 64//109
f 59//110 58//110 42//110 65//110
f 141//111 144//111 54//111 47//111
f 57//106 56//112 64//112 71//107
f 66//113 140//113 46//113 38//113
f 49//102 48//114 70//114 142//103
f 60//115 67//115 37//115 51//115
f 33//116 39//116 143//116 139//116
f 144//117 34//117 55//117 54//117
f 58//118 61//118 43//118 42//118
f 50//119 40//119 43//119 51//119
f 30//120 28//120 49//120 39//120
f 41//121 62//121 65//121 42//121
f 27//122 24//122 57//122 48//122
f 63//123 68//123 71//123 64//123
f 20//124 19//124 59//124 56//124
f 69//125 74//125 142//125 70//125
f 23//126 22//127 144//128 141//126
f 80//129 79//129 139//129 143//129
f 26//130 25//130 140//130 66//130
f 79//131 52//131 55//131 139//131
f 22//127 32//132 34//132 144//128
f 17//133 29//133 67//133 60//133
f 74//134 80//134 143//134 142//134
f 25//135 23//135 141//135 140//135
f 21//136 18//15 61//17 58//136
f 125//137 136//138 145//137 126//138
f 136//139 138//139 137//139 145//139
f 126//140 145//140 146//140 129//140
f 145//141 137//141 134//141 146//141
f 129//142 146//142 147//142 130//142
f 146//143 134//143 133//143 147//143
f 130//144 147//144 148//144 131//144
f 147//145 133//145 128//145 148//145
f 131//146 148//146 149//146 132//146
f 148//147 128//147 127//147 149//147
f 132//148 149//148 123//148 135//148
f 149//149 127//150 124//149 123//150
usemtl Red
f 12//151 2//151 17//151 18//151
f 16//152 15//152 19//152 20//152
f 15//153 13//153 21//153 19//153
f 8//154 7//154 22//154 23//154
f 10//155 16//155 20//155 24//155
f 14//156 11//156 25//156 26//156
f 6//157 5//157 27//157 28//157
f 3//158 9//158 30//158 31//158
f 7//159 4//159 32//159 22//159
f 13//160 12//160 18//160 21//160
f 4//161 3//161 31//161 32//161
f 11//162 8//162 23//162 25//162
f 9//163 6//163 28//163 30//163
f 5//164 10//164 24//164 27//164
